/* XPM */
static char * bottom_active_xpm[] = {
"2 3 3 1",
" 	c None",
".	c #F6F6F6",
"+	c #C2C2C2",
"..",
"..",
"++"};
