/* XPM */
static char * close_prelight_xpm[] = {
"27 28 8 1",
" 	c None",
".	c #C2C2C2",
"+	c #F6F6F6",
"@	c #E58080",
"#	c #FFE6E6",
"$	c #C14444",
"%	c #A90000",
"&	c #FFA6A6",
"...........................",
"+++++++++++++++++++++++++++",
"+++++++++++++++++++++++++++",
"+++++++++++++++++++++++++++",
"+++++++++++++++++++++++++++",
"+++++++++++++++++++++++++++",
"+++++++++++++++++++++++++++",
"+++++++++++++++++++++++++++",
"+++++++++++++++++++++++++++",
"+++++++++++++++++++++++++++",
"++++++++++@#+++#@++++++++++",
"++++++++++$%#+#%$++++++++++",
"+++++++++++$%&%$+++++++++++",
"++++++++++++$%$++++++++++++",
"++++++++++++$%$++++++++++++",
"+++++++++++$%&%$+++++++++++",
"++++++++++$%#+#%$++++++++++",
"++++++++++@#+++#@++++++++++",
"+++++++++++++++++++++++++++",
"+++++++++++++++++++++++++++",
"+++++++++++++++++++++++++++",
"+++++++++++++++++++++++++++",
"+++++++++++++++++++++++++++",
"+++++++++++++++++++++++++++",
"+++++++++++++++++++++++++++",
"+++++++++++++++++++++++++++",
"+++++++++++++++++++++++++++",
"+++++++++++++++++++++++++++"};
