/* XPM */
static char * hide_inactive_xpm[] = {
"27 28 10 1",
" 	c None",
".	c #C2C2C2",
"+	c #F6F6F6",
"@	c #C9C9C9",
"#	c #F0F0F0",
"$	c #9E9E9E",
"%	c #818181",
"&	c #7A7A7A",
"*	c #646464",
"=	c #A9A9A9",
"...........................",
"+++++++++++++++++++++++++++",
"+++++++++++++++++++++++++++",
"+++++++++++++++++++++++++++",
"+++++++++++++++++++++++++++",
"+++++++++++++++++++++++++++",
"+++++++++++++++++++++++++++",
"+++++++++++++++++++++++++++",
"+++++++++++++++++++++++++++",
"+++++++++++++++++++++++++++",
"+++++++++++++++++++++++++++",
"++++++++++@#+++#@++++++++++",
"++++++++++$%#+#%$++++++++++",
"+++++++++++$&@&$+++++++++++",
"++++++++++++$*$++++++++++++",
"+++++++++++++=+++++++++++++",
"+++++++++++++++++++++++++++",
"+++++++++++++++++++++++++++",
"+++++++++++++++++++++++++++",
"+++++++++++++++++++++++++++",
"+++++++++++++++++++++++++++",
"+++++++++++++++++++++++++++",
"+++++++++++++++++++++++++++",
"+++++++++++++++++++++++++++",
"+++++++++++++++++++++++++++",
"+++++++++++++++++++++++++++",
"+++++++++++++++++++++++++++",
"+++++++++++++++++++++++++++"};
