/* XPM */
static char * hide_pressed_xpm[] = {
"27 28 7 1",
" 	c None",
".	c #C2C2C2",
"+	c #F6F6F6",
"@	c #68B3FF",
"#	c #B0D7FF",
"$	c #1F8EFF",
"%	c #007EFF",
"...........................",
"+++++++++++++++++++++++++++",
"+++++++++++++++++++++++++++",
"+++++++++++++++++++++++++++",
"+++++++++++++++++++++++++++",
"+++++++++++++++++++++++++++",
"+++++++++++++++++++++++++++",
"+++++++++++++++++++++++++++",
"+++++++++++++++++++++++++++",
"+++++++++++++++++++++++++++",
"+++++++++++++++++++++++++++",
"+++++++++++++++++++++++++++",
"++++++++++@#+++#@++++++++++",
"++++++++++$%#+#%$++++++++++",
"+++++++++++$%@%$+++++++++++",
"++++++++++++$%$++++++++++++",
"+++++++++++++$+++++++++++++",
"+++++++++++++++++++++++++++",
"+++++++++++++++++++++++++++",
"+++++++++++++++++++++++++++",
"+++++++++++++++++++++++++++",
"+++++++++++++++++++++++++++",
"+++++++++++++++++++++++++++",
"+++++++++++++++++++++++++++",
"+++++++++++++++++++++++++++",
"+++++++++++++++++++++++++++",
"+++++++++++++++++++++++++++",
"+++++++++++++++++++++++++++"};
