/* XPM */
static char * maximize_pressed_xpm[] = {
"27 28 6 1",
" 	c None",
".	c #C2C2C2",
"+	c #F6F6F6",
"@	c #1F8EFF",
"#	c #007EFF",
"$	c #68B3FF",
"...........................",
"+++++++++++++++++++++++++++",
"+++++++++++++++++++++++++++",
"+++++++++++++++++++++++++++",
"+++++++++++++++++++++++++++",
"+++++++++++++++++++++++++++",
"+++++++++++++++++++++++++++",
"+++++++++++++++++++++++++++",
"+++++++++++++++++++++++++++",
"+++++++++++++++++++++++++++",
"+++++++++++++++++++++++++++",
"+++++++++++++++++++++++++++",
"+++++++++++++@+++++++++++++",
"++++++++++++@#@++++++++++++",
"+++++++++++@#$#@+++++++++++",
"++++++++++@#+++#@++++++++++",
"++++++++++$+++++$++++++++++",
"+++++++++++++++++++++++++++",
"+++++++++++++++++++++++++++",
"+++++++++++++++++++++++++++",
"+++++++++++++++++++++++++++",
"+++++++++++++++++++++++++++",
"+++++++++++++++++++++++++++",
"+++++++++++++++++++++++++++",
"+++++++++++++++++++++++++++",
"+++++++++++++++++++++++++++",
"+++++++++++++++++++++++++++",
"+++++++++++++++++++++++++++"};
