/* XPM */
static char * maximize_active_xpm[] = {
"27 28 10 1",
" 	c None",
".	c #C2C2C2",
"+	c #F6F6F6",
"@	c #717171",
"#	c #5F5F5F",
"$	c #000000",
"%	c #232323",
"&	c #A6A6A6",
"*	c #303030",
"=	c #E6E6E6",
"...........................",
"+++++++++++++++++++++++++++",
"+++++++++++++++++++++++++++",
"+++++++++++++++++++++++++++",
"+++++++++++++++++++++++++++",
"+++++++++++++++++++++++++++",
"+++++++++++++++++++++++++++",
"+++++++++++++++++++++++++++",
"+++++++++++++++++++++++++++",
"+++++++++++++++++++++++++++",
"+++++++++++++++++++++++++++",
"+++++++++++++@+++++++++++++",
"++++++++++++#$#++++++++++++",
"+++++++++++#%&%#+++++++++++",
"++++++++++#*=+=*#++++++++++",
"++++++++++&=+++=&++++++++++",
"+++++++++++++++++++++++++++",
"+++++++++++++++++++++++++++",
"+++++++++++++++++++++++++++",
"+++++++++++++++++++++++++++",
"+++++++++++++++++++++++++++",
"+++++++++++++++++++++++++++",
"+++++++++++++++++++++++++++",
"+++++++++++++++++++++++++++",
"+++++++++++++++++++++++++++",
"+++++++++++++++++++++++++++",
"+++++++++++++++++++++++++++",
"+++++++++++++++++++++++++++"};
