/* XPM */
static char * maximize_prelight_xpm[] = {
"27 28 7 1",
" 	c None",
".	c #C2C2C2",
"+	c #F6F6F6",
"@	c #C14444",
"#	c #A90000",
"$	c #E58080",
"%	c #FFE6E6",
"...........................",
"+++++++++++++++++++++++++++",
"+++++++++++++++++++++++++++",
"+++++++++++++++++++++++++++",
"+++++++++++++++++++++++++++",
"+++++++++++++++++++++++++++",
"+++++++++++++++++++++++++++",
"+++++++++++++++++++++++++++",
"+++++++++++++++++++++++++++",
"+++++++++++++++++++++++++++",
"+++++++++++++++++++++++++++",
"+++++++++++++@+++++++++++++",
"++++++++++++@#@++++++++++++",
"+++++++++++@#$#@+++++++++++",
"++++++++++@#%+%#@++++++++++",
"++++++++++$%+++%$++++++++++",
"+++++++++++++++++++++++++++",
"+++++++++++++++++++++++++++",
"+++++++++++++++++++++++++++",
"+++++++++++++++++++++++++++",
"+++++++++++++++++++++++++++",
"+++++++++++++++++++++++++++",
"+++++++++++++++++++++++++++",
"+++++++++++++++++++++++++++",
"+++++++++++++++++++++++++++",
"+++++++++++++++++++++++++++",
"+++++++++++++++++++++++++++",
"+++++++++++++++++++++++++++"};
