/* XPM */
static char * top_left_inactive_xpm[] = {
"3 28 3 1",
" 	c None",
".	c #C2C2C2",
"+	c #F6F6F6",
"...",
".++",
".++",
".++",
".++",
".++",
".++",
".++",
".++",
".++",
".++",
".++",
".++",
".++",
".++",
".++",
".++",
".++",
".++",
".++",
".++",
".++",
".++",
".++",
".++",
".++",
".++",
".++"};
